<?xml version="1.0" encoding="UTF-8"?>
<svg id="Layer_2" data-name="Layer 2" xmlns="http://www.w3.org/2000/svg" viewBox="0 0 1601.1 960">
  <defs>
    <style>
      .cls-1 {
        fill: #00c0a5;
      }

      .cls-1, .cls-2, .cls-3 {
        stroke-width: 0px;
      }

      .cls-2 {
        fill: #0a5b6c;
      }

      .cls-3 {
        fill: #fff;
      }
    </style>
  </defs>
  <g id="Layer_1-2" data-name="Layer 1">
    <g>
      <rect class="cls-2" width="1601.1" height="960"/>
      <g>
        <g>
          <path class="cls-3" d="M574.69,628.18c-.44-1.39-.92-2.49-1.44-3.27h-21.87s-18.59,0-18.59,0h-16.89c-2.1,0-3.78.66-5.04,1.97-1.27,1.3-1.9,3.4-1.9,6.28,0,1.57.2,3.05.59,4.45s.89,2.49,1.51,3.27h20.82v54.87c0,3.49.8,5.93,2.42,7.33,1.62,1.39,4.39,2.1,8.32,2.1,1.83,0,3.62-.11,5.37-.33,1.74-.22,3.05-.46,3.93-.72v-63.24h16.37c2.18,0,3.91-.67,5.17-2.03,1.27-1.35,1.9-3.43,1.9-6.22,0-1.58-.22-3.06-.65-4.46Z"/>
          <path class="cls-3" d="M618.42,648.48c0-5.94-4.45-8.91-13.36-8.91-4.45,0-8.71.51-12.77,1.51-4.06,1-7.53,2.38-10.41,4.13-2.1,1.3-3.73,2.81-4.91,4.51-1.18,1.71-1.77,3.78-1.77,6.22v13.75s0,4.97,0,4.97v21.48c0,3.4.85,5.76,2.56,7.06,1.7,1.31,4.39,1.97,8.05,1.97,1.83,0,3.54-.11,5.11-.33,1.57-.22,2.79-.46,3.67-.72v-29.46s0-4.58,0-4.58v-11.78c1.83-1.05,4.06-1.88,6.68-2.49,2.62-.61,5.23-.91,7.86-.91,1.48,0,2.86.07,4.12.2,1.26.13,2.33.28,3.21.45.53-.87.98-1.91,1.37-3.14.39-1.21.59-2.53.59-3.92Z"/>
          <path class="cls-3" d="M665.36,643.04c-4.5-2.4-9.76-3.59-15.78-3.59-4.11,0-8.05.65-11.85,1.96-3.79,1.3-7.2,3.3-10.21,5.96-3.01,2.67-5.42,6.05-7.2,10.15-1.79,4.1-2.68,8.94-2.68,14.53,0,7.6,1.53,13.92,4.58,18.99,3.06,5.06,7.27,8.86,12.64,11.4,5.37,2.53,11.41,3.79,18.14,3.79,4.62,0,8.75-.43,12.37-1.3,3.62-.87,6.46-2.18,8.51-3.93,2.05-1.75,3.08-3.93,3.08-6.55,0-1.57-.42-3.05-1.25-4.45-.83-1.4-1.9-2.49-3.21-3.27-2.01,1.13-4.63,2.22-7.86,3.27-3.23,1.04-6.67,1.57-10.34,1.57-4.54,0-8.47-1.03-11.79-3.08-2.65-1.63-4.45-4.19-5.48-7.57l34.29-5.07c2.62-.34,4.67-1.22,6.15-2.62,1.49-1.39,2.23-3.45,2.23-6.15,0-5.42-1.27-10.17-3.8-14.28-2.53-4.1-6.04-7.35-10.54-9.76ZM635.95,667.79c.39-4.16,1.6-7.57,3.94-9.95,2.62-2.67,5.89-4,9.82-4s6.59,1.05,8.51,3.14c1.92,2.09,2.97,4.36,3.14,6.81l-25.41,3.99Z"/>
          <path class="cls-3" d="M731.09,643.04c-4.5-2.4-9.76-3.59-15.78-3.59-4.11,0-8.05.65-11.85,1.96-3.79,1.3-7.2,3.3-10.21,5.96-3.01,2.67-5.42,6.05-7.2,10.15-1.79,4.1-2.68,8.94-2.68,14.53,0,7.6,1.53,13.92,4.58,18.99,3.06,5.06,7.27,8.86,12.64,11.4,5.37,2.53,11.41,3.79,18.14,3.79,4.62,0,8.75-.43,12.37-1.3,3.62-.87,6.46-2.18,8.51-3.93,2.05-1.75,3.08-3.93,3.08-6.55,0-1.57-.42-3.05-1.25-4.45-.83-1.4-1.9-2.49-3.21-3.27-2.01,1.13-4.63,2.22-7.86,3.27-3.23,1.04-6.67,1.57-10.34,1.57-4.54,0-8.47-1.03-11.79-3.08-2.65-1.63-4.45-4.19-5.48-7.57l34.29-5.07c2.62-.34,4.67-1.22,6.15-2.62,1.49-1.39,2.23-3.45,2.23-6.15,0-5.42-1.27-10.17-3.8-14.28-2.53-4.1-6.04-7.35-10.54-9.76ZM701.68,667.79c.39-4.16,1.6-7.57,3.94-9.95,2.62-2.67,5.89-4,9.82-4s6.59,1.05,8.51,3.14c1.92,2.09,2.97,4.36,3.14,6.81l-25.41,3.99Z"/>
          <path class="cls-3" d="M811.94,623.61c-1.75,0-3.49.13-5.23.39-1.75.26-3.1.48-4.06.66v24.23s0,7.59,0,7.59h-28.93v-7.59s0-15.84,0-15.84c0-3.67-.83-6.15-2.49-7.47-1.66-1.31-4.41-1.96-8.25-1.96-1.66,0-3.38.13-5.17.39-1.79.26-3.12.48-4,.66v24.23s0,25.14,0,25.14v21.73c0,3.49.81,5.93,2.42,7.33,1.61,1.39,4.39,2.1,8.31,2.1,1.83,0,3.62-.11,5.37-.33,1.74-.22,3.01-.46,3.8-.72v-30.11s0-1.71,0-1.71h28.93v1.71s0,21.73,0,21.73c0,3.49.81,5.93,2.42,7.33,1.61,1.39,4.39,2.1,8.31,2.1,1.83,0,3.62-.11,5.37-.33,1.74-.22,3.06-.46,3.93-.72v-30.11s0-25.14,0-25.14v-15.71c0-3.67-.85-6.18-2.55-7.53s-4.43-2.03-8.18-2.03Z"/>
          <path class="cls-3" d="M882.06,643.57c-4.93-2.75-10.72-4.12-17.35-4.12s-12.46,1.37-17.48,4.12c-5.02,2.75-8.93,6.61-11.72,11.59-2.79,4.97-4.19,10.86-4.19,17.67s1.37,12.86,4.12,17.87c2.75,5.02,6.61,8.86,11.59,11.53,4.98,2.66,10.82,3.99,17.55,3.99s12.57-1.35,17.55-4.05c4.98-2.71,8.84-6.57,11.59-11.59,2.75-5.01,4.12-10.93,4.12-17.74s-1.4-12.59-4.19-17.61c-2.8-5.02-6.66-8.91-11.59-11.66ZM874.4,686.19c-2.36,3.14-5.63,4.71-9.82,4.71s-7.46-1.55-9.82-4.64c-2.35-3.1-3.54-7.57-3.54-13.42s1.2-10.21,3.6-13.36c2.4-3.14,5.65-4.71,9.76-4.71s7.46,1.59,9.82,4.78c2.35,3.19,3.54,7.62,3.54,13.29s-1.18,10.21-3.54,13.36Z"/>
          <path class="cls-3" d="M954.14,640.49c-1.83,0-3.54.13-5.11.39s-2.79.53-3.67.79v28.68s0,5.89,0,5.89v12.7c-.78.43-1.96.87-3.53,1.3-1.57.44-3.54.66-5.9.66-3.75,0-6.65-.87-8.71-2.62s-3.08-4.63-3.08-8.64v-3.4s0-5.89,0-5.89v-20.69c0-3.58-.85-6-2.55-7.26-1.7-1.27-4.43-1.9-8.18-1.9-1.83,0-3.54.13-5.11.39s-2.75.53-3.54.79v28.68s0,5.89,0,5.89v3.54c0,6.19,1.29,11.24,3.86,15.12,2.57,3.88,6.19,6.74,10.87,8.57,4.67,1.84,10.1,2.75,16.3,2.75,4.97,0,9.49-.5,13.55-1.5,4.06-1,7.48-2.38,10.28-4.13,1.83-1.13,3.16-2.45,4-3.93.83-1.48,1.24-3.27,1.24-5.37v-15.06s0-5.89,0-5.89v-20.69c0-3.58-.85-6-2.55-7.26-1.7-1.27-4.43-1.9-8.18-1.9Z"/>
          <path class="cls-3" d="M1003.76,665.63l-5.24-1.3c-2.53-.53-4.3-1.2-5.3-2.03-1-.83-1.51-1.81-1.51-2.95,0-1.74.87-3.03,2.62-3.86,1.74-.83,4.19-1.24,7.33-1.24,2.01,0,4.17.22,6.48.66,2.31.43,4.45,1,6.42,1.7s3.43,1.35,4.39,1.96c1.13-.87,2.05-1.96,2.75-3.27.7-1.31,1.05-2.84,1.05-4.59,0-2.53-1.01-4.65-3.01-6.35-2.01-1.7-4.74-2.97-8.18-3.8-3.45-.83-7.27-1.24-11.46-1.24-8.38,0-15.04,1.81-19.97,5.43-4.94,3.62-7.4,8.49-7.4,14.6,0,5.42,1.72,9.67,5.17,12.77,3.45,3.1,8.66,5.39,15.65,6.88l5.5,1.31c2.62.43,4.49,1.11,5.63,2.03,1.13.92,1.7,2.16,1.7,3.73,0,3.67-3.19,5.5-9.56,5.5-4.19,0-7.92-.59-11.2-1.76-3.27-1.18-6.13-2.47-8.57-3.86-1.23.79-2.23,1.85-3.01,3.21-.79,1.35-1.18,2.95-1.18,4.78,0,4.1,2.31,7.2,6.94,9.3,4.63,2.1,10.52,3.14,17.68,3.14,9.16,0,16.15-1.81,20.95-5.43,4.8-3.62,7.2-8.62,7.2-14.99,0-5.24-1.7-9.49-5.11-12.77-3.4-3.27-8.99-5.78-16.76-7.53Z"/>
          <path class="cls-3" d="M1089.91,673.23c1.49-1.39,2.23-3.45,2.23-6.15,0-5.42-1.27-10.17-3.8-14.28-2.53-4.1-6.04-7.35-10.54-9.76-4.5-2.4-9.76-3.59-15.78-3.59-4.11,0-8.05.65-11.85,1.96-3.79,1.3-7.2,3.3-10.21,5.96-3.01,2.67-5.42,6.05-7.2,10.15-1.79,4.1-2.68,8.94-2.68,14.53,0,7.6,1.53,13.92,4.58,18.99,3.06,5.06,7.27,8.86,12.64,11.4,5.37,2.53,11.41,3.79,18.14,3.79,4.62,0,8.75-.43,12.37-1.3,3.62-.87,6.46-2.18,8.51-3.93,2.05-1.75,3.08-3.93,3.08-6.55,0-1.57-.42-3.05-1.25-4.45-.83-1.4-1.9-2.49-3.21-3.27-2.01,1.13-4.63,2.22-7.86,3.27-3.23,1.04-6.67,1.57-10.34,1.57-4.54,0-8.47-1.03-11.79-3.08-2.65-1.63-4.45-4.19-5.48-7.57l34.29-5.07c2.62-.34,4.67-1.22,6.15-2.62ZM1048.4,667.79c.39-4.16,1.6-7.57,3.94-9.95,2.62-2.67,5.89-4,9.82-4s6.59,1.05,8.51,3.14c1.92,2.09,2.97,4.36,3.14,6.81l-25.41,3.99Z"/>
        </g>
        <g>
          <polygon class="cls-1" points="832.93 253.65 795.78 275.58 987.21 389.02 987.21 532.89 710.43 532.89 710.43 570.7 1025.02 570.7 1025.02 367.46 832.93 253.65"/>
          <polygon class="cls-1" points="766.89 370.98 643.42 444.17 643.42 532.89 613.87 532.89 613.87 427.37 766.87 336.73 919.87 427.37 919.87 503.59 957.67 503.59 957.67 405.82 766.87 292.76 576.08 405.82 576.08 570.71 681.23 570.68 681.23 465.7 803.98 392.97 766.89 370.98"/>
        </g>
      </g>
    </g>
  </g>
</svg>